<?xml version="1.0" encoding="UTF-8" standalone="no"?>
<svg
   width="140"
   height="158"
   version="1.1"
   xml:space="preserve"
   id="svg1"
   sodipodi:docname="hope_anchor.svg"
   inkscape:version="1.3.2 (091e20e, 2023-11-25, custom)"
   xmlns:inkscape="http://www.inkscape.org/namespaces/inkscape"
   xmlns:sodipodi="http://sodipodi.sourceforge.net/DTD/sodipodi-0.dtd"
   xmlns="http://www.w3.org/2000/svg"
   xmlns:svg="http://www.w3.org/2000/svg"
   xmlns:rdf="http://www.w3.org/1999/02/22-rdf-syntax-ns#"
   xmlns:cc="http://creativecommons.org/ns#"
   xmlns:dc="http://purl.org/dc/elements/1.1/"><defs
   id="defs2" /><sodipodi:namedview
   id="namedview2"
   pagecolor="#ffffff"
   bordercolor="#000000"
   borderopacity="0.25"
   inkscape:showpageshadow="2"
   inkscape:pageopacity="0.0"
   inkscape:pagecheckerboard="0"
   inkscape:deskcolor="#d1d1d1"
   inkscape:zoom="3.5055556"
   inkscape:cx="233.3439"
   inkscape:cy="59.191758"
   inkscape:window-width="3840"
   inkscape:window-height="2089"
   inkscape:window-x="-8"
   inkscape:window-y="-8"
   inkscape:window-maximized="1"
   inkscape:current-layer="svg1" />
 <title
   id="anchor">Anchor</title>
 <desc
   id="anchor for hope lutheran">Created with Fabric.js 5.2.4</desc>

 <g
   class="layer"
   id="g2"
   transform="translate(-2.4142025,-1.8741)">
  <title
   id="title2">Layer 1</title>
  <g
   id="54ca6093-cefd-45da-bdf1-39ce25aab320"
   transform="translate(540,540)" />
  <g
   id="svg_15">
   <g
   id="svg_2"
   transform="matrix(0.07,0,0,-0.07,572.91,308.85)">
    <path
   d="m -4184.29,5855.29 c 756,-79 1084,-862 606,-1448 -77,-95 -78,-98 -14,-38 544,506 173,1468 -577,1496 l -175,6 z"
   fill="#000000"
   fill-rule="nonzero"
   id="svg_3"
   stroke-dashoffset="0"
   stroke-miterlimit="4"
   transform="translate(-3075.45,-1485.92)" />
   </g>
   <g
   id="svg_4"
   transform="matrix(0.07,0,0,-0.07,572.73,309.65)">
    <path
   d="m -4274.29,5760.29 c 0,-58 4,-61 131,-82 570,-94 807,-741 430,-1170 l -60,-68 47,-44 47,-44 75,86 c 438,502 122,1308 -537,1369 l -133,13 z m 80,-6 c 0,-22 -13,-40 -30,-40 -17,0 -30,18 -30,40 0,22 13,40 30,40 17,0 30,-18 30,-40 z m 540,-249 c -20,-25 -31,-27 -54,-7 -26,21 -25,27 6,50 47,34 85,0 48,-43 z m 235,-526 c 5,-15 -9,-25 -32,-25 -44,0 -70,26 -48,48 20,20 71,6 80,-23 z m -245,-525 c 22,-35 -10,-65 -42,-39 -15,13 -28,32 -28,41 0,25 55,23 70,-2 z"
   fill="#000000"
   fill-rule="nonzero"
   id="svg_5"
   stroke-dashoffset="0"
   stroke-miterlimit="4"
   transform="translate(-3076.16,-1472)" />
   </g>
   <g
   id="svg_6"
   transform="matrix(0.07,0,0,-0.07,564.31,338.83)">
    <path
   d="m -4512.29,5688.29 c -204,-72 -195,-343 13,-410 78,-26 125,-90 125,-173 0,-30 -171,-91 -255,-91 -81,0 -140,-75 -107,-136 39,-74 120,-74 182,-1 60,71 216,121 240,78 50,-95 300,-801 300,-850 0,-176 -303,-260 -518,-142 l -49,26 44,14 c 97,31 -41,106 -233,126 l -105,11 20,-52 c 72,-191 174,-315 194,-238 14,54 12,55 105,-7 140,-92 279,-133 516,-150 130,-9 251,-28 286,-46 l 61,-30 42,83 c 23,45 87,128 143,183 140,141 243,307 285,460 34,127 53,153 79,111 61,-99 61,103 -1,257 -42,104 -59,99 -152,-38 -98,-144 -117,-209 -59,-194 65,17 65,-8 1,-119 -106,-187 -332,-272 -432,-163 -56,60 -394,839 -373,858 36,32 207,83 238,71 48,-18 128,40 128,94 0,99 -107,126 -184,47 -41,-42 -188,-113 -233,-113 -48,0 -76,150 -40,210 40,65 48,182 17,230 -15,24 -5,32 56,42 l 74,12 -83,3 c -45,2 -114,17 -154,33 -84,35 -82,35 -171,4 z m 154,-105 c 82,-58 47,-194 -57,-219 -119,-29 -195,136 -99,214 55,44 97,46 156,5 z m 34,-249 c -38,-42 -37,-46 584,-1595 8,-20 -2,-21 -43,-5 -29,11 -127,21 -217,21 -98,1 -208,16 -274,36 l -110,36 124,11 c 207,20 331,133 297,271 -52,211 -438,1182 -477,1201 -43,21 -43,21 7,23 28,0 69,14 90,29 53,39 64,22 19,-28 z"
   fill="#000000"
   fill-rule="nonzero"
   id="svg_7"
   stroke-dashoffset="0"
   stroke-miterlimit="4"
   transform="translate(-2927.31,-1049.89)" />
   </g>
   <g
   id="svg_8"
   transform="matrix(0.07,0,0,-0.07,517.8,323.85)">
    <path
   d="m -4900.29,5569.29 c -370,-455 -237,-1114 274,-1366 138,-67 340,-119 408,-104 19,4 -33,17 -114,30 -692,106 -1004,932 -541,1434 46,50 75,91 63,91 -12,0 -52,-38 -90,-85 z"
   fill="#000000"
   fill-rule="nonzero"
   id="svg_9"
   stroke-dashoffset="0"
   stroke-miterlimit="4"
   transform="translate(-2251.55,-1261.2)" />
   </g>
   <g
   id="svg_10"
   transform="matrix(0.07,0,0,-0.07,520.32,323.17)">
    <path
   d="m -4861.29,5529.29 c -252,-308 -257,-768 -11,-1074 182,-227 678,-405 678,-243 0,56 -5,59 -133,81 -543,95 -781,678 -457,1119 l 87,118 -46,43 -46,44 z m 123,-2 c 4,-19 -6,-33 -23,-33 -38,0 -60,33 -42,61 18,29 58,13 65,-28 z m -226,-533 c 0,-16 -16,-32 -35,-36 -25,-5 -35,6 -35,36 0,30 10,41 35,36 19,-4 35,-20 35,-36 z m 221,-521 c 18,-30 -33,-85 -57,-61 -22,22 -5,82 24,82 11,0 25,-9 33,-21 z m 529,-259 c 0,-22 -13,-40 -30,-40 -17,0 -30,18 -30,40 0,22 13,40 30,40 17,0 30,-18 30,-40 z"
   fill="#000000"
   fill-rule="nonzero"
   id="svg_11"
   stroke-dashoffset="0"
   stroke-miterlimit="4"
   transform="translate(-2290.35,-1269.2)" />
   </g>
  </g>
 </g>
<metadata
   id="metadata2"><rdf:RDF><cc:Work
       rdf:about=""><dc:title>Anchor</dc:title></cc:Work></rdf:RDF></metadata></svg>
